<?xml version="1.0" standalone="no"?>
<!DOCTYPE svg PUBLIC "-//W3C//DTD SVG 20010904//EN"
 "http://www.w3.org/TR/2001/REC-SVG-20010904/DTD/svg10.dtd">
<svg version="1.0" xmlns="http://www.w3.org/2000/svg"
 width="130.000000pt" height="130.000000pt" viewBox="0 0 130.000000 130.000000"
 preserveAspectRatio="xMidYMid meet">
<metadata>
Created by potrace 1.14, written by Peter Selinger 2001-2017
</metadata>
<g transform="translate(0.000000,130.000000) scale(0.100000,-0.100000)"
fill="#000000" stroke="none">
<path d="M311 774 c-64 -27 -58 -80 17 -133 32 -24 42 -38 42 -60 0 -16 -6
-34 -14 -40 -18 -15 -71 -10 -72 7 -3 25 -5 27 -15 9 -14 -24 -2 -36 36 -38
66 -4 82 5 95 51 9 32 7 35 -52 91 -58 56 -60 60 -46 81 10 15 25 23 44 23 25
0 29 -3 26 -25 -4 -29 14 -16 20 14 4 27 -39 37 -81 20z"/>
<path d="M471 771 c-11 -7 -11 -9 0 -13 9 -3 14 -33 15 -109 1 -57 2 -110 3
-116 0 -7 13 -13 29 -12 26 0 26 1 5 9 -22 9 -23 15 -23 110 l0 102 37 -49
c75 -99 135 -173 139 -173 2 0 4 58 4 129 l0 129 -25 0 c-22 0 -23 -2 -9 -12
13 -10 17 -32 18 -99 0 -48 0 -87 -1 -87 -1 0 -37 45 -79 100 -77 99 -87 108
-113 91z"/>
<path d="M733 772 c-10 -6 -10 -12 3 -28 8 -10 13 -14 10 -7 -8 14 10 26 45
30 l26 3 -1 -123 0 -122 29 -3 c23 -2 26 0 15 7 -12 8 -15 34 -15 120 0 114 3
123 41 116 11 -2 23 -4 28 -4 4 -1 5 -8 2 -17 -3 -8 -2 -12 4 -9 6 3 10 15 10
26 0 17 -8 19 -92 19 -51 0 -99 -4 -105 -8z"/>
<path d="M974 769 c-2 -4 1 -9 8 -11 9 -3 12 -37 10 -121 l-1 -117 32 1 c18 1
24 3 15 6 -16 4 -18 19 -18 128 0 119 -1 124 -21 122 -11 -1 -22 -5 -25 -8z"/>
</g>
</svg>
